
<svg xmlns="http://www.w3.org/2000/svg" viewBox="0 0 100 100" fill="none">
  <defs>
    <linearGradient id="grad1" x1="0%" y1="0%" x2="100%" y2="100%">
      <stop offset="0%" stop-color="#9b87f5">
        <animate attributeName="stop-color" values="#9b87f5; #7E69AB; #6d4cb0; #9b87f5" dur="4s" repeatCount="indefinite" />
      </stop>
      <stop offset="100%" stop-color="#7E69AB">
        <animate attributeName="stop-color" values="#7E69AB; #6d4cb0; #9b87f5; #7E69AB" dur="4s" repeatCount="indefinite" />
      </stop>
    </linearGradient>
    <filter id="glow" x="-20%" y="-20%" width="140%" height="140%">
      <feGaussianBlur stdDeviation="3" result="blur" />
      <feComposite in="SourceGraphic" in2="blur" operator="over" />
    </filter>
  </defs>
  <circle cx="50" cy="50" r="45" fill="url(#grad1)" filter="url(#glow)">
    <animate attributeName="r" values="45;47;45" dur="2s" repeatCount="indefinite" />
  </circle>
  <path d="M70 40C70 51.0457 61.0457 60 50 60C38.9543 60 30 51.0457 30 40C30 28.9543 38.9543 20 50 20C61.0457 20 70 28.9543 70 40Z" fill="white">
    <animate attributeName="d" values="M70 40C70 51.0457 61.0457 60 50 60C38.9543 60 30 51.0457 30 40C30 28.9543 38.9543 20 50 20C61.0457 20 70 28.9543 70 40Z; M68 40C68 49.9411 59.9411 58 50 58C40.0589 58 32 49.9411 32 40C32 30.0589 40.0589 22 50 22C59.9411 22 68 30.0589 68 40Z; M70 40C70 51.0457 61.0457 60 50 60C38.9543 60 30 51.0457 30 40C30 28.9543 38.9543 20 50 20C61.0457 20 70 28.9543 70 40Z" dur="3s" repeatCount="indefinite" />
  </path>
  <path d="M50 100L31.6987 70L68.3013 70L50 100Z" fill="white">
    <animate attributeName="d" values="M50 100L31.6987 70L68.3013 70L50 100Z; M50 98L33 70L67 70L50 98Z; M50 100L31.6987 70L68.3013 70L50 100Z" dur="3s" repeatCount="indefinite" />
  </path>
  <path d="M35 37.5C35 35.0147 37.0147 33 39.5 33C41.9853 33 44 35.0147 44 37.5C44 39.9853 41.9853 42 39.5 42C37.0147 42 35 39.9853 35 37.5Z" fill="#5b21b6">
    <animate attributeName="fill" values="#5b21b6; #7E69AB; #9b87f5; #5b21b6" dur="4s" repeatCount="indefinite" />
  </path>
  <path d="M56 37.5C56 35.0147 58.0147 33 60.5 33C62.9853 33 65 35.0147 65 37.5C65 39.9853 62.9853 42 60.5 42C58.0147 42 56 39.9853 56 37.5Z" fill="#5b21b6">
    <animate attributeName="fill" values="#5b21b6; #7E69AB; #9b87f5; #5b21b6" dur="4s" repeatCount="indefinite" />
  </path>
  <path d="M36 52.5C36 52.5 41.5 57.5 50 57.5C58.5 57.5 64 52.5 64 52.5" stroke="#5b21b6" stroke-width="2" stroke-linecap="round">
    <animate attributeName="stroke" values="#5b21b6; #7E69AB; #9b87f5; #5b21b6" dur="4s" repeatCount="indefinite" />
    <animate attributeName="d" values="M36 52.5C36 52.5 41.5 57.5 50 57.5C58.5 57.5 64 52.5 64 52.5; M36 52.5C36 52.5 41.5 54.5 50 54.5C58.5 54.5 64 52.5 64 52.5; M36 52.5C36 52.5 41.5 57.5 50 57.5C58.5 57.5 64 52.5 64 52.5" dur="3s" repeatCount="indefinite" />
  </path>
</svg>
